<svg width="30" height="30" viewBox="0 0 30 30" fill="none" xmlns="http://www.w3.org/2000/svg">
<path fill-rule="evenodd" clip-rule="evenodd" d="M15 3.75C8.7868 3.75 3.75 8.7868 3.75 15C3.75 21.2132 8.7868 26.25 15 26.25C21.2132 26.25 26.25 21.2132 26.25 15C26.25 8.7868 21.2132 3.75 15 3.75ZM1.25 15C1.25 7.40608 7.40608 1.25 15 1.25C22.5939 1.25 28.75 7.40608 28.75 15C28.75 22.5939 22.5939 28.75 15 28.75C7.40608 28.75 1.25 22.5939 1.25 15Z" fill="#111113"/>
<path fill-rule="evenodd" clip-rule="evenodd" d="M1.25 15C1.25 14.3096 1.80964 13.75 2.5 13.75H27.5C28.1904 13.75 28.75 14.3096 28.75 15C28.75 15.6904 28.1904 16.25 27.5 16.25H2.5C1.80964 16.25 1.25 15.6904 1.25 15Z" fill="#111113"/>
<path fill-rule="evenodd" clip-rule="evenodd" d="M11.2503 15C11.336 18.8436 12.6578 22.5439 15 25.5615C17.3422 22.5439 18.664 18.8436 18.7497 15C18.664 11.1564 17.3422 7.45606 15 4.4385C12.6578 7.45606 11.336 11.1564 11.2503 15ZM15 2.5L14.0771 1.65697C10.7461 5.30363 8.85314 10.0361 8.75027 14.974C8.74991 14.9913 8.74991 15.0087 8.75027 15.026C8.85314 19.9639 10.7461 24.6964 14.0771 28.343C14.3139 28.6023 14.6488 28.75 15 28.75C15.3512 28.75 15.6861 28.6023 15.9229 28.343C19.2539 24.6964 21.1469 19.9639 21.2497 15.026C21.2501 15.0087 21.2501 14.9913 21.2497 14.974C21.1469 10.0361 19.2539 5.30363 15.9229 1.65697L15 2.5Z" fill="#111113"/>
</svg>
