<svg width="30" height="30" viewBox="0 0 30 30" fill="none" xmlns="http://www.w3.org/2000/svg">
<path fill-rule="evenodd" clip-rule="evenodd" d="M5 13.75C5.69036 13.75 6.25 14.3096 6.25 15V26.25H23.75V15C23.75 14.3096 24.3096 13.75 25 13.75C25.6904 13.75 26.25 14.3096 26.25 15V27.5C26.25 28.1904 25.6904 28.75 25 28.75H5C4.30964 28.75 3.75 28.1904 3.75 27.5V15C3.75 14.3096 4.30964 13.75 5 13.75Z" fill="#111113"/>
<path fill-rule="evenodd" clip-rule="evenodd" d="M1.25 8.75C1.25 8.05964 1.80964 7.5 2.5 7.5H27.5C28.1904 7.5 28.75 8.05964 28.75 8.75V15C28.75 15.6904 28.1904 16.25 27.5 16.25H2.5C1.80964 16.25 1.25 15.6904 1.25 15V8.75ZM3.75 10V13.75H26.25V10H3.75Z" fill="#111113"/>
<path fill-rule="evenodd" clip-rule="evenodd" d="M15 7.5C15.6904 7.5 16.25 8.05964 16.25 8.75V27.5C16.25 28.1904 15.6904 28.75 15 28.75C14.3096 28.75 13.75 28.1904 13.75 27.5V8.75C13.75 8.05964 14.3096 7.5 15 7.5Z" fill="#111113"/>
<path fill-rule="evenodd" clip-rule="evenodd" d="M9.375 3.75C8.87772 3.75 8.40081 3.94754 8.04917 4.29917C7.69754 4.65081 7.5 5.12772 7.5 5.625C7.5 6.12228 7.69754 6.5992 8.04917 6.95083C8.40081 7.30246 8.87772 7.5 9.375 7.5H13.3175C13.1649 7.10077 12.9718 6.66177 12.7329 6.2274C11.9466 4.79793 10.8674 3.75 9.375 3.75ZM15 8.75C16.2257 8.50486 16.2256 8.50443 16.2255 8.50398L16.2248 8.50047L16.2235 8.49379L16.2193 8.47366C16.2158 8.45729 16.211 8.43506 16.2048 8.40735C16.1925 8.35197 16.1745 8.27457 16.1504 8.17828C16.1023 7.98596 16.0296 7.71678 15.928 7.39607C15.7263 6.75915 15.4041 5.89668 14.9234 5.0226C13.9909 3.32707 12.2576 1.25 9.375 1.25C8.21468 1.25 7.10188 1.71094 6.28141 2.53141C5.46094 3.35188 5 4.46468 5 5.625C5 6.78532 5.46094 7.89812 6.28141 8.71859C7.10188 9.53906 8.21468 10 9.375 10H15C15.3745 10 15.7293 9.8321 15.9667 9.54249C16.2041 9.25288 16.299 8.8712 16.2255 8.50398L15 8.75Z" fill="#111113"/>
<path fill-rule="evenodd" clip-rule="evenodd" d="M15.0766 5.0226C16.0091 3.32707 17.7424 1.25 20.625 1.25C21.7853 1.25 22.8981 1.71094 23.7186 2.53141C24.5391 3.35188 25 4.46468 25 5.625C25 6.78532 24.5391 7.89812 23.7186 8.71859C22.8981 9.53906 21.7853 10 20.625 10H15C14.6255 10 14.2707 9.8321 14.0333 9.54249C13.7959 9.25288 13.7008 8.87207 13.7743 8.50486L15 8.75C13.7743 8.50486 13.7742 8.50531 13.7743 8.50486L13.7747 8.50295L13.7752 8.50047L13.7765 8.49379L13.7807 8.47366C13.7842 8.45729 13.789 8.43506 13.7952 8.40735C13.8075 8.35197 13.8255 8.27457 13.8496 8.17828C13.8977 7.98596 13.9704 7.71678 14.072 7.39607C14.2737 6.75915 14.5959 5.89668 15.0766 5.0226ZM16.6825 7.5H20.625C21.1223 7.5 21.5992 7.30246 21.9508 6.95083C22.3025 6.5992 22.5 6.12228 22.5 5.625C22.5 5.12772 22.3025 4.65081 21.9508 4.29917C21.5992 3.94754 21.1223 3.75 20.625 3.75C19.1326 3.75 18.0534 4.79793 17.2671 6.2274C17.0282 6.66177 16.8351 7.10077 16.6825 7.5ZM16.2253 8.99725C16.2252 8.99765 16.2252 8.99758 16.2253 8.99725V8.99725Z" fill="#111113"/>
</svg>
